<svg width="28" height="28" viewBox="0 0 28 28" fill="none" xmlns="http://www.w3.org/2000/svg">
<path d="M14.139 1.93066C14.2035 1.95939 14.2035 1.95939 14.2693 1.98871C14.4102 2.05173 14.5503 2.11615 14.6905 2.1806C14.7903 2.22555 14.8902 2.27041 14.99 2.31518C15.2483 2.43118 15.5059 2.54833 15.7635 2.66575C15.9984 2.77263 16.2338 2.87847 16.4692 2.98425C16.5592 3.0247 16.6492 3.06515 16.7392 3.10561C16.8056 3.13548 16.8056 3.13548 16.8734 3.16596C17.009 3.22696 17.1444 3.28811 17.2799 3.3493C17.9721 3.66181 18.667 3.96788 19.3629 4.27212C20.1151 4.60109 20.8645 4.93588 21.6124 5.27442C22.0812 5.48659 22.5504 5.69723 23.0236 5.89956C23.062 5.91604 23.1005 5.93252 23.1401 5.9495C23.3185 6.0258 23.497 6.10157 23.676 6.17648C23.7378 6.20275 23.7996 6.22903 23.8633 6.2561C23.9434 6.28966 23.9434 6.28966 24.0251 6.3239C24.2191 6.42225 24.4008 6.52779 24.5001 6.72649C24.5057 6.81028 24.508 6.8943 24.5085 6.97827C24.509 7.03133 24.5095 7.08438 24.51 7.13904C24.5103 7.22666 24.5103 7.22666 24.5107 7.31604C24.5111 7.3774 24.5116 7.43877 24.512 7.50199C24.5134 7.70577 24.5143 7.90955 24.5151 8.11334C24.5154 8.18281 24.5157 8.25229 24.516 8.32387C24.5171 8.61586 24.5182 8.90785 24.5188 9.19984C24.5197 9.61811 24.5215 10.0363 24.5246 10.4546C24.527 10.7843 24.5278 11.1139 24.5282 11.4436C24.5286 11.5837 24.5294 11.7239 24.5307 11.8641C24.5324 12.0602 24.5324 12.2563 24.532 12.4524C24.5329 12.5104 24.5338 12.5683 24.5347 12.6281C24.531 13.0675 24.531 13.0675 24.3683 13.2698C24.1979 13.4245 24.1191 13.4512 23.8981 13.462C23.7173 13.4471 23.6074 13.3945 23.4611 13.289C23.2829 13.0124 23.2742 12.7844 23.2784 12.4668C23.2783 12.4182 23.2783 12.3696 23.2783 12.3196C23.2784 12.1598 23.2797 12 23.281 11.8402C23.2813 11.7291 23.2815 11.618 23.2817 11.5069C23.2823 11.215 23.2839 10.9232 23.2857 10.6314C23.2874 10.3334 23.2882 10.0353 23.289 9.7373C23.2907 9.15296 23.2935 8.56864 23.297 7.98431C23.268 7.99721 23.2389 8.01012 23.209 8.02342C20.5176 9.21958 20.5176 9.21958 20.3635 9.28809C20.2621 9.33317 20.1606 9.37825 20.0592 9.42332C19.8058 9.53594 19.5524 9.64855 19.299 9.76114C18.7314 10.0134 18.1638 10.2658 17.5963 10.5185C17.3396 10.6328 17.0828 10.7469 16.8259 10.8607C16.7247 10.9055 16.6235 10.9503 16.5224 10.9951C16.4725 11.0172 16.4226 11.0393 16.3712 11.062C16.0596 11.2003 15.7487 11.3403 15.4383 11.4814C15.2327 11.5747 15.0267 11.6673 14.8206 11.7597C14.7238 11.8034 14.6271 11.8474 14.5306 11.8919C14.3972 11.9532 14.2634 12.0133 14.1294 12.0731C14.0718 12.1001 14.0718 12.1001 14.013 12.1278C13.6826 12.2726 13.3559 12.3154 13.0043 12.2157C12.8824 12.1681 12.7657 12.1145 12.6481 12.0572C12.604 12.0369 12.5599 12.0165 12.5145 11.9955C12.4197 11.9515 12.325 11.9071 12.2306 11.8622C12.0274 11.7657 11.8233 11.6715 11.6191 11.577C11.513 11.5279 11.407 11.4787 11.301 11.4293C10.8167 11.2041 10.3285 10.9887 9.83877 10.7755C9.00893 10.4143 8.18244 10.0462 7.35771 9.67348C6.53936 9.30382 5.71798 8.94135 4.89518 8.5817C4.85017 8.56202 4.80516 8.54234 4.75879 8.52205C4.67606 8.48588 4.59331 8.44975 4.51053 8.41368C4.19036 8.27377 3.87301 8.12895 3.5548 7.98431C3.5548 11.7561 3.5548 15.5279 3.5548 19.414C5.08665 20.101 5.08665 20.101 6.6227 20.7782C7.45237 21.14 8.27891 21.5085 9.10378 21.8812C9.91092 22.2457 10.7209 22.6035 11.5323 22.9584C11.5761 22.9776 11.6198 22.9967 11.6649 23.0164C11.7509 23.054 11.8369 23.0915 11.923 23.1288C12.1426 23.2244 12.3606 23.3224 12.5772 23.4245C12.6216 23.4451 12.666 23.4658 12.7118 23.487C12.796 23.5263 12.88 23.5662 12.9636 23.6069C13.2036 23.7179 13.3532 23.758 13.6173 23.6796C13.6534 23.6616 13.6895 23.6435 13.7267 23.6249C14.0114 23.5897 14.2089 23.5748 14.441 23.7548C14.5878 23.9536 14.6258 24.0798 14.619 24.3312C14.5875 24.5385 14.4898 24.6527 14.3282 24.7734C13.9543 24.9896 13.6195 25.1504 13.1798 25.1015C13.0248 25.056 12.8829 24.9904 12.7374 24.9208C12.6956 24.9016 12.6538 24.8825 12.6107 24.8627C12.5204 24.8212 12.4303 24.7794 12.3403 24.7372C12.1461 24.6461 11.9511 24.5569 11.7562 24.4675C11.6543 24.4207 11.5524 24.3739 11.4506 24.327C10.973 24.1071 10.492 23.8955 10.0101 23.6855C9.17756 23.3226 8.34817 22.9532 7.52059 22.5792C6.86876 22.2847 6.21514 21.9947 5.55979 21.7082C5.28149 21.5864 5.00341 21.4641 4.72534 21.3418C4.50049 21.2429 4.27551 21.1444 4.05025 21.0465C3.83668 20.9536 3.62355 20.8599 3.4107 20.7654C3.33231 20.7308 3.25378 20.6965 3.17509 20.6626C3.06733 20.6162 2.96016 20.5685 2.85305 20.5206C2.76277 20.481 2.76277 20.481 2.67066 20.4406C2.47529 20.3184 2.40514 20.2199 2.29699 20.0156C2.2661 19.836 2.26767 19.6595 2.26958 19.4776C2.26913 19.3967 2.26913 19.3967 2.26866 19.3142C2.26792 19.1337 2.26874 18.9533 2.26955 18.7728C2.26935 18.6433 2.26904 18.5139 2.26866 18.3844C2.26789 18.0329 2.26851 17.6814 2.26941 17.3299C2.27018 16.9995 2.26986 16.6691 2.26967 16.3387C2.26935 15.6841 2.27013 15.0295 2.27147 14.3749C2.27278 13.7397 2.27317 13.1046 2.2726 12.4694C2.27197 11.7776 2.27187 11.0858 2.27266 10.394C2.27274 10.3203 2.27282 10.2465 2.27291 10.1727C2.27295 10.1364 2.27299 10.1001 2.27303 10.0627C2.27329 9.80701 2.27318 9.55129 2.27296 9.29558C2.2727 8.95142 2.27325 8.60728 2.27443 8.26313C2.27474 8.1367 2.27476 8.01027 2.27449 7.88383C2.27416 7.71151 2.27485 7.53922 2.27579 7.3669C2.2753 7.2915 2.27529 7.2915 2.27479 7.21459C2.27741 6.95241 2.28902 6.77426 2.46105 6.56243C2.69984 6.37684 2.95884 6.25959 3.23479 6.14159C3.27812 6.12275 3.32144 6.1039 3.36607 6.08448C3.45963 6.0438 3.55325 6.00326 3.64693 5.96285C3.90063 5.85335 4.15387 5.74279 4.40716 5.63232C4.45929 5.60961 4.51142 5.5869 4.56513 5.5635C5.08711 5.33576 5.60625 5.10186 6.12511 4.86712C6.86139 4.53432 7.59965 4.20647 8.33996 3.88274C9.0493 3.57253 9.75706 3.25913 10.4628 2.94088C10.601 2.87862 10.7392 2.8165 10.8774 2.75441C11.2485 2.58757 11.6194 2.42048 11.9881 2.24822C12.0915 2.19997 12.1952 2.15212 12.2988 2.10441C12.4208 2.04817 12.5424 1.99115 12.6634 1.93314C12.717 1.90863 12.7705 1.88413 12.8256 1.85888C12.8932 1.82704 12.8932 1.82704 12.9622 1.79455C13.3887 1.67775 13.7466 1.74678 14.139 1.93066ZM13.1423 3.09358C13.1007 3.11246 13.0591 3.13135 13.0162 3.1508C12.9709 3.17162 12.9255 3.19244 12.8788 3.21389C12.8317 3.23533 12.7846 3.25676 12.736 3.27885C12.6347 3.32495 12.5334 3.37115 12.4322 3.41742C12.1682 3.53806 11.9039 3.65804 11.6396 3.77807C11.5876 3.80169 11.5356 3.82532 11.4821 3.84966C11.0932 4.02626 10.7034 4.20034 10.3121 4.37151C10.2589 4.3948 10.2057 4.41809 10.1509 4.44209C10.046 4.488 9.94103 4.5339 9.83609 4.5798C9.56026 4.70082 9.28508 4.82329 9.00988 4.94573C8.95118 4.97184 8.89248 4.99794 8.832 5.02484C8.52732 5.16036 8.22268 5.29596 7.91805 5.43159C5.49372 6.51092 5.49372 6.51092 4.48449 6.94524C4.48449 6.98134 4.48449 7.01743 4.48449 7.05462C4.58866 7.10046 4.69284 7.1463 4.79703 7.19211C4.89001 7.23303 4.98296 7.27401 5.07589 7.31505C5.33288 7.4284 5.59034 7.54042 5.8489 7.65015C6.73176 8.02704 6.73176 8.02704 7.05245 8.24856C7.32329 8.42993 7.54154 8.54975 7.87511 8.53118C8.55638 8.37265 9.19427 8.01 9.81417 7.69744C10.2554 7.47601 10.7065 7.27664 11.1573 7.07554C11.3512 6.98876 11.5446 6.90083 11.7379 6.81292C12.3117 6.55224 12.8887 6.29989 13.4678 6.05113C14.0343 5.80723 14.5966 5.5546 15.1581 5.29937C15.4625 5.16103 15.767 5.02303 16.0735 4.88955C16.1203 4.86916 16.167 4.84878 16.2151 4.82777C16.2986 4.7915 16.3822 4.75551 16.466 4.71987C16.664 4.64421 16.664 4.64421 16.7892 4.48431C15.3473 3.82956 15.3473 3.82956 13.8976 3.19231C13.8523 3.17269 13.807 3.15306 13.7603 3.13283C13.503 3.02314 13.3945 2.97837 13.1423 3.09358ZM17.8633 5.39605C17.8155 5.41734 17.7676 5.43862 17.7184 5.46055C17.559 5.53153 17.3997 5.60265 17.2403 5.67376C17.1285 5.72362 17.0165 5.77346 16.9046 5.8233C16.6717 5.92704 16.4388 6.03083 16.2059 6.13465C15.7308 6.34639 15.2555 6.55756 14.7801 6.76873C14.526 6.88166 14.2718 6.99463 14.0176 7.1076C13.9153 7.1531 13.8129 7.1986 13.7105 7.2441C13.6594 7.26683 13.6082 7.28956 13.5555 7.31297C13.3954 7.38415 13.2352 7.45533 13.0751 7.52651C13.0212 7.55045 12.9674 7.57438 12.9119 7.59904C12.8034 7.64725 12.6949 7.69547 12.5864 7.74368C12.3231 7.8607 12.0598 7.97776 11.7965 8.09494C11.3505 8.29342 10.9043 8.49148 10.457 8.68713C10.3862 8.7182 10.3153 8.74928 10.2445 8.78037C10.1183 8.83572 9.992 8.89078 9.86552 8.9455C9.81185 8.96908 9.75817 8.99267 9.70287 9.01696C9.65696 9.03692 9.61105 9.05688 9.56375 9.07744C9.4518 9.12502 9.4518 9.12502 9.40636 9.24212C9.49493 9.28084 9.49493 9.28084 9.58529 9.32033C9.7628 9.39795 9.94028 9.47567 10.1177 9.55344C10.3212 9.6426 10.5248 9.73149 10.7285 9.82022C11.2081 10.0297 11.6858 10.2415 12.1576 10.4681C12.2346 10.5046 12.3115 10.5411 12.3885 10.5776C12.4962 10.6286 12.6035 10.68 12.71 10.7334C12.8073 10.7821 12.9055 10.8287 13.0038 10.8753C13.058 10.9019 13.1121 10.9286 13.1679 10.9561C13.4245 11.0086 13.5994 10.9275 13.8361 10.8281C13.8761 10.8115 13.9161 10.795 13.9574 10.778C14.0843 10.724 14.2102 10.6679 14.3359 10.6112C14.3831 10.5902 14.4303 10.5691 14.479 10.5474C14.6339 10.4783 14.7887 10.4088 14.9435 10.3393C15.0534 10.2902 15.1633 10.2411 15.2732 10.192C15.5014 10.0901 15.7295 9.98809 15.9577 9.88601C16.43 9.6747 16.903 9.4647 17.376 9.25469C17.6298 9.14197 17.8836 9.02915 18.1374 8.91634C18.5096 8.75087 18.882 8.58546 19.2543 8.4201C19.4746 8.32228 19.6948 8.22444 19.9151 8.12659C20.0186 8.08064 20.122 8.03469 20.2255 7.98875C20.9222 7.67949 21.6178 7.36802 22.3126 7.05462C22.3126 7.01853 22.3126 6.98243 22.3126 6.94524C20.6884 6.2055 20.6884 6.2055 19.0553 5.48577C19.0204 5.47061 18.9854 5.45545 18.9494 5.43982C18.405 5.20051 18.405 5.20051 17.8633 5.39605Z" fill="black"/>
<path d="M18.4889 15.4012L15.6907 18.1994L11.2885 13.7971L10.2993 14.7863L15.6907 20.1777L18.4889 17.3795L21.492 20.3826L19.888 21.9867H24.0852V17.7894L22.4812 19.3935L18.4889 15.4012Z" fill="black"/>
</svg>
